Coordinates
version=1
nRows=12
nColumns=34
inDegrees=yes

Units are S.I. units (second, meters, Newtons, ...)
If the header above contains a line with 'inDegrees', this indicates whether rotational values are in degrees (yes) or radians (no).

endheader
time	pelvis_tilt	pelvis_list	pelvis_rotation	pelvis_tx	pelvis_ty	pelvis_tz	hip_flexion_r	hip_adduction_r	hip_rotation_r	knee_angle_r	ankle_angle_r	subtalar_angle_r	mtp_angle_r	hip_flexion_l	hip_adduction_l	hip_rotation_l	knee_angle_l	ankle_angle_l	subtalar_angle_l	mtp_angle_l	lumbar_extension	lumbar_bending	lumbar_rotation	arm_flex_r	arm_add_r	arm_rot_r	elbow_flex_r	pro_sup_r	arm_flex_l	arm_add_l	arm_rot_l	elbow_flex_l	pro_sup_l
      4.42500000	      4.42840483	      2.11864999	   -177.45707879	      0.14922165	      1.04937863	      0.15378633	     46.85035732	     -2.07162375	     -3.20973740	    101.95543129	      2.63015982	    -20.99575597	      0.00000000	      9.87161737	      1.60104821	     -1.66961375	     40.44375852	      7.06616458	    -12.71462407	      0.00000000	    -17.26120210	     -2.96262176	    -12.87395450	    -23.61927924	    -21.18708593	      2.70354653	     91.73956056	     90.08284855	     21.12038186	    -26.68326465	      7.45733912	    102.75110132	     85.25117710
      4.43333330	      4.94950727	      2.13236715	   -177.79972634	      0.14757702	      1.05576817	      0.15211583	     47.80307172	     -1.90799496	     -4.21538382	     96.69402567	      2.26060155	    -23.30848792	      0.00000000	      7.76691820	      1.01239157	     -2.78465798	     38.70909604	      5.06622356	    -10.91213973	      0.00000000	    -16.07664785	     -3.08968657	    -12.51101333	    -25.99842082	    -20.10341361	      0.89149564	     92.44408344	     90.61919527	     25.30582934	    -24.92516429	     11.01615506	    100.33155468	     85.30175253
      4.44166670	      5.44755812	      1.75092827	   -178.07095319	      0.14503419	      1.06255238	      0.15066940	     48.25210912	     -2.11128192	     -5.03720093	     91.08583239	      2.32616230	    -24.64174768	      0.00000000	      5.62907651	      0.99972206	     -3.52071863	     36.75420588	      2.44190623	     -9.25583360	      0.00000000	    -14.79983853	     -3.62454599	    -13.33385967	    -27.09962335	    -19.49176909	      0.67278120	     93.13398805	     90.75006507	     25.42414692	    -24.23647717	     11.23646966	    100.38947470	     85.21964543
      4.45000000	      6.03253420	      1.42427236	   -178.18631736	      0.14184647	      1.06938934	      0.14953121	     48.74283815	     -2.22233439	     -5.83259795	     85.40885494	      2.50040077	    -25.00535907	      0.00000000	      3.64685258	      1.00179617	     -3.97356876	     34.77132375	     -0.33848090	     -7.58738851	      0.00000000	    -13.43106629	     -4.10490445	    -14.24063799	    -28.13568095	    -18.79136186	      0.86278293	     93.41804948	     90.80808082	     25.15092823	    -23.61091500	     11.69152235	    100.71238785	     85.19709573
      4.45833330	      6.58019514	      0.96287854	   -178.37914843	      0.13797327	      1.07604167	      0.14864716	     48.87184461	     -2.24437626	     -6.27087732	     79.41713390	      2.13798846	    -25.05725297	      0.00000000	      1.54408278	      1.17997773	     -4.49880060	     32.59011899	     -3.51760974	     -5.82253744	      0.00000000	    -12.04206254	     -4.69283048	    -15.06356221	    -29.14669828	    -18.12139425	      0.91429372	     93.60034401	     90.86259296	     24.56502145	    -23.26686617	     12.04797252	    100.63290230	     85.14878540
      4.46666670	      7.06351945	      0.35886615	   -178.60940628	      0.13362976	      1.08238863	      0.14782970	     48.72227406	     -2.30424921	     -6.37529628	     73.42383673	      0.84342227	    -24.56592889	      0.00000000	     -0.62788510	      1.57648196	     -4.97494605	     30.30782235	     -6.95975193	     -4.14657301	      0.00000000	    -10.70309527	     -5.37746947	    -15.84433722	    -30.09324884	    -17.49252301	      0.90537728	     93.72470781	     90.92455705	     23.72236607	    -23.09073682	     12.35506435	    100.26818360	     85.07326460
      4.47500000	      6.98111988	     -0.37466035	   -179.14286598	      0.12947420	      1.08857708	      0.14637407	     47.90624656	     -1.91031468	     -5.65716105	     67.26646535	     -1.82474411	    -25.23588647	      0.00000000	     -3.32050482	      2.17142999	     -5.53288953	     28.16702418	    -10.58118857	     -3.27808764	      0.00000000	     -9.86494475	     -6.29327256	    -16.23170722	    -30.86324801	    -16.73233393	      0.45909563	     93.74097203	     91.75787327	     23.23828073	    -22.91602083	     12.63277088	     99.07565942	     83.94796192
      4.48333330	      7.22177172	     -1.33875524	   -179.36289783	      0.12457384	      1.09452042	      0.14588222	     47.27563262	     -2.00510959	     -4.83567797	     61.09973525	     -3.37992040	    -23.72684079	      0.00000000	     -5.30034150	      3.06648155	     -5.55205245	     26.65526155	    -13.72324094	     -2.52226409	      0.00000000	     -8.72792884	     -7.37819800	    -16.97270368	    -31.60877973	    -16.32439504	      0.46128560	     93.92437445	     91.92628811	     22.23905942	    -23.05028620	     12.81996043	     98.73176271	     83.70553782
      4.49166670	      7.08343306	     -2.34243595	   -179.55483869	      0.12036536	      1.10027512	      0.14536516	     46.08119858	     -2.10061512	     -3.75056364	     54.69214696	     -5.10259249	    -21.95261541	      0.00000000	     -7.30853614	      4.06790701	     -5.14600093	     25.75279044	    -16.53682701	     -2.95245998	      0.00000000	     -8.18160157	     -8.38121394	    -17.73823058	    -32.12268154	    -16.01330921	      0.65224443	     94.15691655	     92.22898467	     21.20218928	    -23.19518583	     12.89210613	     98.68152814	     83.25450070
      4.50000000	      6.64240372	     -3.19348987	   -179.62736740	      0.11626233	      1.10644481	      0.14556231	     44.36222711	     -2.26328357	     -2.82903612	     48.08691685	     -6.25924674	    -19.75280300	      0.00000000	     -9.26017992	      4.92033154	     -4.53211604	     25.55875069	    -18.53293716	     -4.08690781	      0.00000000	     -8.06053265	     -9.10422341	    -18.58930150	    -32.39760189	    -15.95595064	      0.85388765	     94.54675540	     92.60033121	     20.12664102	    -23.41234301	     13.13660250	     99.17729064	     82.68621848
      4.50833330	      6.02532131	     -3.91634846	   -179.63649553	      0.11318605	      1.11180905	      0.14593512	     42.27603502	     -2.51715688	     -2.14687842	     41.34233055	     -6.93541158	    -17.20849589	      0.00000000	    -11.01387919	      5.62824286	     -3.89595256	     26.04270971	    -19.59326677	     -5.81391034	      0.00000000	     -8.20428444	     -9.60339634	    -19.36701624	    -32.46949426	    -16.00550683	      1.00989617	     95.05761812	     92.95888702	     19.15803501	    -23.62618403	     13.66248381	     99.98814398	     82.13065024
      4.51666670	      5.17055807	     -4.63775840	   -179.54827276	      0.11086697	      1.11650869	      0.14646728	     39.82606827	     -3.00198884	     -1.82030623	     34.70283843	     -7.38352453	    -14.29902808	      0.00000000	    -12.63615454	      6.31491469	     -3.18921170	     27.17606299	    -19.75285369	     -8.18718647	      0.00000000	     -8.68108582	    -10.06030965	    -20.08500231	    -32.41378070	    -16.09070154	      1.15101572	     95.60016838	     93.33355355	     18.39557373	    -23.79379927	     14.49387118	    100.91214719	     81.53999968
